<svg width="31" height="30" viewBox="0 0 31 30" fill="none" xmlns="http://www.w3.org/2000/svg">
<path opacity="0.5" d="M7.55365 29.6061C6.25665 29.6061 5.04612 29.1089 3.92205 28.1145C2.84122 27.0769 1.97655 25.7367 1.32805 24.0938C0.722784 22.4509 0.42015 20.7 0.42015 18.8409C0.42015 15.9875 0.917334 13.3071 1.9117 10.7995C2.9493 8.24878 4.20307 6.10873 5.673 4.3794C7.14293 2.60683 8.54802 1.35307 9.88825 0.618099H9.9531L12.2229 2.6933V3.6012C11.142 4.59557 10.126 6.02227 9.1749 7.8813C8.22377 9.6971 7.7482 11.9452 7.7482 14.6257C7.7482 16.0092 7.94275 17.1332 8.33185 17.9979C8.72095 18.8626 9.3046 19.8137 10.0828 20.8513C10.7313 21.6727 11.2069 22.3861 11.5095 22.9914C11.8121 23.5966 11.9635 24.3316 11.9635 25.1962C11.9635 26.4932 11.5311 27.5525 10.6664 28.3739C9.84502 29.1953 8.80742 29.6061 7.55365 29.6061ZM25.582 29.6061C24.285 29.6061 23.096 29.1089 22.0152 28.1145C20.9344 27.0769 20.0697 25.7367 19.4212 24.0938C18.8159 22.4509 18.5133 20.7 18.5133 18.8409C18.5133 15.9875 19.0105 13.3071 20.0049 10.7995C21.0425 8.24878 22.2962 6.08711 23.7662 4.31455C25.2361 2.54198 26.6412 1.30983 27.9814 0.618099H28.0463L30.2512 2.6933V3.6012C29.1703 4.59557 28.1543 6.02227 27.2032 7.8813C26.2521 9.6971 25.7765 11.9452 25.7765 14.6257C25.7765 16.0092 25.971 17.1332 26.3602 17.9979C26.7493 18.8626 27.3329 19.8137 28.1111 20.8513C28.7596 21.6727 29.2352 22.3861 29.5378 22.9914C29.8404 23.5966 29.9917 24.3316 29.9917 25.1962C29.9917 26.4932 29.5594 27.5525 28.6948 28.3739C27.8733 29.1953 26.8357 29.6061 25.582 29.6061Z" fill="#091638"/>
</svg>
